<svg xmlns="http://www.w3.org/2000/svg" xmlns:xlink="http://www.w3.org/1999/xlink" version="1.1" x="0px" y="0px" width="60px" height="60px" viewBox="120 100 150 150" style="enable-background:new 120 100 150 150;" xml:space="preserve">
            	<g>     
   <path style="fill:none;fill-rule:evenodd;stroke:#000000;stroke-width:3.86899996;stroke-linecap:butt;stroke-linejoin:miter;stroke-miterlimit:4;stroke-dasharray:none;stroke-opacity:0.23529412" d="m 144.20274,137.97032 0,62.23693 53.46973,30.86412 52.45769,-30.86412 0,-62.40651 -52.9637,-30.86411 z" id="path3441-4"></path>
        <path d="m 198.12891,134.99219 -27.80469,16.4375 8.21875,5.24609 19.23528,-11.36601 19.93464,11.8914 8.04492,-5.77148 z" id="path3445-6"></path>
        <path d="m 167.87565,153.52799 9.26813,6.12046 0,21.50907 19.23575,11.89119 0,10.84197 -28.15414,-16.43782 z" id="path3447-9"></path>
        <path d="m 227.72747,153.1181 -9.17981,5.95508 0.34974,22.14755 -19.76055,11.57226 -0.16901,0.10807 0.0635,11.09427 28.64031,-16.89308 z" id="path3449-9"></path>
        <path d="m 198.00013,148.64844 -18.09974,10.75976 -0.0389,20.57422 18.50195,10.87696 18.17188,-10.67579 c 0.002,-7.08544 -0.11248,-14.78175 -0.26168,-21.00781 L 198.0002,148.64844 Z" id="path3451-9"></path>
        <path d="" id="path3463-9"></path>
        <path d="m 219.91589,167.38914 c 7.8e-4,-0.67325 0.0324,-0.92724 0.0702,-0.56443 0.0379,0.36282 0.0372,0.91366 -10e-4,1.2241 -0.0386,0.31043 -0.0696,0.0136 -0.0688,-0.65967 z" id="path3475-7"></path>
        <path d="m 170.15111,216.31011 -27.32398,-15.69184 0.0442,-31.81537 0.0442,-31.81536 27.09671,-15.79184 c 24.65104,-14.3665 27.12903,-15.77122 27.45466,-15.5635 0.19688,0.12557 12.41746,7.21585 27.15685,15.75618 l 26.7989,15.52786 -0.008,31.84914 -0.008,31.84915 -26.76856,15.65091 c -14.7227,8.60799 -26.85728,15.67016 -26.96572,15.6937 -0.10845,0.0236 -12.49297,-7.01852 -27.52116,-15.64903 z m 53.02994,-2.47383 25.88083,-15.19363 0,-0.93763 c 0,-0.5157 -0.066,-13.96112 -0.14661,-29.8787 -0.13492,-26.63112 -0.16981,-28.96329 -0.43718,-29.21948 -0.35712,-0.34218 -50.51565,-29.90636 -50.91726,-30.01139 -0.16532,-0.0432 -11.18899,6.40561 -25.91449,15.15995 l -25.62678,15.23519 -0.10879,12.36314 c -0.0598,6.79972 -0.15255,20.31099 -0.20602,30.02505 l -0.0972,17.66192 25.75891,14.98359 c 14.1674,8.24097 25.79826,14.98855 25.84635,14.9946 0.0481,0.006 11.7338,-6.82612 25.96826,-15.18261 z" id="path4319-6"></path>
        <path d="m 170.15111,216.31011 -27.32398,-15.69184 0.0442,-31.81537 0.0442,-31.81536 27.09671,-15.79184 c 24.65104,-14.3665 27.12903,-15.77122 27.45466,-15.5635 0.19688,0.12557 12.41746,7.21585 27.15685,15.75618 l 26.7989,15.52786 -0.008,31.84914 -0.008,31.84915 -26.76856,15.65091 c -14.7227,8.60799 -26.85728,15.67016 -26.96572,15.6937 -0.10845,0.0236 -12.49297,-7.01852 -27.52116,-15.64903 z m 53.02994,-2.47383 25.88083,-15.19363 0,-0.93763 c 0,-0.5157 -0.066,-13.96112 -0.14661,-29.8787 -0.13492,-26.63112 -0.16981,-28.96329 -0.43718,-29.21948 -0.35712,-0.34218 -50.51565,-29.90636 -50.91726,-30.01139 -0.16532,-0.0432 -11.18899,6.40561 -25.91449,15.15995 l -25.62678,15.23519 -0.10879,12.36314 c -0.0598,6.79972 -0.15255,20.31099 -0.20602,30.02505 l -0.0972,17.66192 25.75891,14.98359 c 14.1674,8.24097 25.79826,14.98855 25.84635,14.9946 0.0481,0.006 11.7338,-6.82612 25.96826,-15.18261 z" id="path4321-0"></path>
        <path style="opacity:0;fill:#cccccc;fill-opacity:1;stroke:#000000;stroke-width:0.17487046;stroke-opacity:0" d="m 169.62651,217.17981 -27.84858,-16.01157 0.0442,-32.36398 0.0442,-32.36398 27.5421,-16.0527 c 15.14816,-8.82898 27.66014,-16.02048 27.80441,-15.9811 0.14426,0.0394 12.6169,7.23587 27.71696,15.99219 l 27.45467,15.92059 0.0396,32.40994 0.0396,32.40994 -27.43381,16.04437 c -15.0886,8.8244 -27.46103,16.03615 -27.49429,16.02612 -0.0333,-0.01 -12.59233,-7.22346 -27.90905,-16.02982 z m 55.05174,-0.75603 26.91925,-15.75487 -0.004,-31.94105 -0.004,-31.94105 -27.25336,-15.7856 -27.25336,-15.78561 -27.21479,15.86048 -27.21478,15.86048 0.0442,31.9166 0.0442,31.9166 27.27979,15.68605 c 15.00388,8.62733 27.38302,15.69433 27.50918,15.70445 0.12616,0.0101 12.34305,-7.0713 27.14864,-15.73648 z" id="path4323-2"></path>
        <path style="opacity:0;fill:#cccccc;fill-opacity:1;stroke:#000000;stroke-width:0.17487046;stroke-opacity:0" d="" id="path4325-6"></path>
        <path style="opacity:0;fill:#cccccc;fill-opacity:1;stroke:#000000;stroke-width:0.17487046;stroke-opacity:0" d="m 170.15111,216.31011 -27.32398,-15.69184 0.0442,-31.81537 0.0442,-31.81536 27.09671,-15.79184 c 24.65104,-14.3665 27.12903,-15.77122 27.45466,-15.5635 0.19688,0.12557 12.41746,7.21585 27.15685,15.75618 l 26.7989,15.52786 -0.008,31.84914 -0.008,31.84915 -26.76856,15.65091 c -14.7227,8.60799 -26.85728,15.67016 -26.96572,15.6937 -0.10845,0.0236 -12.49297,-7.01852 -27.52116,-15.64903 z m 53.02994,-2.47383 25.88083,-15.19363 0,-0.93763 c 0,-0.5157 -0.066,-13.96112 -0.14661,-29.8787 -0.13492,-26.63112 -0.16981,-28.96329 -0.43718,-29.21948 -0.35712,-0.34218 -50.51565,-29.90636 -50.91726,-30.01139 -0.16532,-0.0432 -11.18899,6.40561 -25.91449,15.15995 l -25.62678,15.23519 -0.10879,12.36314 c -0.0598,6.79972 -0.15255,20.31099 -0.20602,30.02505 l -0.0972,17.66192 25.75891,14.98359 c 14.1674,8.24097 25.79826,14.98855 25.84635,14.9946 0.0481,0.006 11.7338,-6.82612 25.96826,-15.18261 z" id="path4327-9"></path>
      </g>            </svg>